<mxfile host="app.diagrams.net" agent="Mozilla/5.0 (Windows NT 10.0; Win64; x64) AppleWebKit/537.36 (KHTML, like Gecko) Chrome/139.0.0.0 Safari/537.36" version="28.1.1">
  <diagram name="Page-1" id="ffIs-DOOAsCSt8n962In">
    <mxGraphModel dx="605" dy="913" grid="0" gridSize="10" guides="1" tooltips="1" connect="1" arrows="1" fold="1" page="1" pageScale="1" pageWidth="827" pageHeight="1169" background="#ffffff" math="0" shadow="0">
      <root>
        <mxCell id="0" />
        <mxCell id="1" parent="0" />
        <mxCell id="HuiexEqz4UiYQAD6bRG_-1" value="Species" style="swimlane;fontStyle=0;childLayout=stackLayout;horizontal=1;startSize=30;horizontalStack=0;resizeParent=1;resizeParentMax=0;resizeLast=0;collapsible=1;marginBottom=0;whiteSpace=wrap;html=1;" vertex="1" parent="1">
          <mxGeometry x="160" y="110" width="140" height="90" as="geometry">
            <mxRectangle x="160" y="110" width="78" height="30" as="alternateBounds" />
          </mxGeometry>
        </mxCell>
        <mxCell id="HuiexEqz4UiYQAD6bRG_-2" value="&lt;div&gt;&lt;u&gt;id&lt;/u&gt;&lt;/div&gt;&lt;div&gt;common_name&lt;/div&gt;&lt;div&gt;scientific_name&lt;/div&gt;&lt;div&gt;category&lt;/div&gt;" style="text;strokeColor=none;fillColor=none;align=left;verticalAlign=middle;spacingLeft=4;spacingRight=4;overflow=hidden;points=[[0,0.5],[1,0.5]];portConstraint=eastwest;rotatable=0;whiteSpace=wrap;html=1;" vertex="1" parent="HuiexEqz4UiYQAD6bRG_-1">
          <mxGeometry y="30" width="140" height="60" as="geometry" />
        </mxCell>
        <mxCell id="HuiexEqz4UiYQAD6bRG_-3" value="Observation" style="swimlane;fontStyle=0;childLayout=stackLayout;horizontal=1;startSize=30;horizontalStack=0;resizeParent=1;resizeParentMax=0;resizeLast=0;collapsible=1;marginBottom=0;whiteSpace=wrap;html=1;" vertex="1" parent="1">
          <mxGeometry x="160" y="360" width="140" height="150" as="geometry" />
        </mxCell>
        <mxCell id="HuiexEqz4UiYQAD6bRG_-4" value="&lt;div&gt;&lt;u&gt;id&lt;/u&gt;&lt;/div&gt;&lt;div&gt;observer_name&lt;/div&gt;&lt;div&gt;location&lt;/div&gt;&lt;div&gt;latitude&lt;/div&gt;&lt;div&gt;longitude&lt;/div&gt;&lt;div&gt;observation_date&lt;/div&gt;&lt;div&gt;comment&lt;/div&gt;&lt;div&gt;&lt;u&gt;&lt;font style=&quot;color: light-dark(rgb(0, 0, 0), rgb(0, 127, 255));&quot;&gt;specie_Id&lt;/font&gt;&lt;/u&gt;&lt;/div&gt;" style="text;strokeColor=none;fillColor=none;align=left;verticalAlign=middle;spacingLeft=4;spacingRight=4;overflow=hidden;points=[[0,0.5],[1,0.5]];portConstraint=eastwest;rotatable=0;whiteSpace=wrap;html=1;" vertex="1" parent="HuiexEqz4UiYQAD6bRG_-3">
          <mxGeometry y="30" width="140" height="120" as="geometry" />
        </mxCell>
        <mxCell id="HuiexEqz4UiYQAD6bRG_-5" value="travel_log" style="swimlane;fontStyle=0;childLayout=stackLayout;horizontal=1;startSize=30;horizontalStack=0;resizeParent=1;resizeParentMax=0;resizeLast=0;collapsible=1;marginBottom=0;whiteSpace=wrap;html=1;" vertex="1" parent="1">
          <mxGeometry x="580" y="379" width="140" height="118" as="geometry" />
        </mxCell>
        <mxCell id="HuiexEqz4UiYQAD6bRG_-6" value="id&lt;div&gt;observation&lt;/div&gt;&lt;div&gt;distance_km&lt;/div&gt;&lt;div&gt;mode&lt;/div&gt;&lt;div&gt;estimated_co2_kg&lt;/div&gt;&lt;div&gt;&lt;u&gt;&lt;font style=&quot;color: light-dark(rgb(0, 0, 0), rgb(0, 127, 255));&quot;&gt;observation_id&lt;/font&gt;&lt;/u&gt;&lt;/div&gt;" style="text;strokeColor=none;fillColor=none;align=left;verticalAlign=middle;spacingLeft=4;spacingRight=4;overflow=hidden;points=[[0,0.5],[1,0.5]];portConstraint=eastwest;rotatable=0;whiteSpace=wrap;html=1;" vertex="1" parent="HuiexEqz4UiYQAD6bRG_-5">
          <mxGeometry y="30" width="140" height="88" as="geometry" />
        </mxCell>
        <mxCell id="HuiexEqz4UiYQAD6bRG_-7" value="Peut avoir" style="rounded=1;whiteSpace=wrap;html=1;" vertex="1" parent="1">
          <mxGeometry x="400" y="417.5" width="80" height="35" as="geometry" />
        </mxCell>
        <mxCell id="HuiexEqz4UiYQAD6bRG_-8" value="" style="endArrow=none;html=1;rounded=0;exitX=0.986;exitY=0.408;exitDx=0;exitDy=0;exitPerimeter=0;" edge="1" parent="1" source="HuiexEqz4UiYQAD6bRG_-4">
          <mxGeometry width="50" height="50" relative="1" as="geometry">
            <mxPoint x="310" y="430" as="sourcePoint" />
            <mxPoint x="400" y="439" as="targetPoint" />
          </mxGeometry>
        </mxCell>
        <mxCell id="HuiexEqz4UiYQAD6bRG_-9" value="" style="endArrow=none;html=1;rounded=0;entryX=0.009;entryY=0.354;entryDx=0;entryDy=0;entryPerimeter=0;" edge="1" parent="1" target="HuiexEqz4UiYQAD6bRG_-6">
          <mxGeometry width="50" height="50" relative="1" as="geometry">
            <mxPoint x="480" y="440" as="sourcePoint" />
            <mxPoint x="440" y="320" as="targetPoint" />
          </mxGeometry>
        </mxCell>
        <mxCell id="HuiexEqz4UiYQAD6bRG_-10" value="1" style="text;html=1;align=center;verticalAlign=middle;whiteSpace=wrap;rounded=0;" vertex="1" parent="1">
          <mxGeometry x="330" y="410" width="40" height="20" as="geometry" />
        </mxCell>
        <mxCell id="HuiexEqz4UiYQAD6bRG_-11" value="1..*" style="text;html=1;align=center;verticalAlign=middle;whiteSpace=wrap;rounded=0;" vertex="1" parent="1">
          <mxGeometry x="510" y="410" width="40" height="20" as="geometry" />
        </mxCell>
        <mxCell id="HuiexEqz4UiYQAD6bRG_-12" value="Peut avoir" style="rounded=1;whiteSpace=wrap;html=1;" vertex="1" parent="1">
          <mxGeometry x="190" y="260" width="80" height="35" as="geometry" />
        </mxCell>
        <mxCell id="HuiexEqz4UiYQAD6bRG_-13" value="" style="endArrow=none;html=1;rounded=0;exitX=0.5;exitY=0;exitDx=0;exitDy=0;entryX=0.5;entryY=0.97;entryDx=0;entryDy=0;entryPerimeter=0;" edge="1" parent="1" source="HuiexEqz4UiYQAD6bRG_-12" target="HuiexEqz4UiYQAD6bRG_-2">
          <mxGeometry width="50" height="50" relative="1" as="geometry">
            <mxPoint x="390" y="370" as="sourcePoint" />
            <mxPoint x="440" y="320" as="targetPoint" />
          </mxGeometry>
        </mxCell>
        <mxCell id="HuiexEqz4UiYQAD6bRG_-14" value="" style="endArrow=none;html=1;rounded=0;exitX=0.5;exitY=0;exitDx=0;exitDy=0;entryX=0.5;entryY=0.97;entryDx=0;entryDy=0;entryPerimeter=0;" edge="1" parent="1">
          <mxGeometry width="50" height="50" relative="1" as="geometry">
            <mxPoint x="229.5" y="357" as="sourcePoint" />
            <mxPoint x="229.5" y="295" as="targetPoint" />
          </mxGeometry>
        </mxCell>
        <mxCell id="HuiexEqz4UiYQAD6bRG_-15" value="1" style="text;html=1;align=center;verticalAlign=middle;whiteSpace=wrap;rounded=0;" vertex="1" parent="1">
          <mxGeometry x="250" y="220" width="40" height="20" as="geometry" />
        </mxCell>
        <mxCell id="HuiexEqz4UiYQAD6bRG_-16" value="0..*" style="text;html=1;align=center;verticalAlign=middle;whiteSpace=wrap;rounded=0;" vertex="1" parent="1">
          <mxGeometry x="250" y="320" width="40" height="20" as="geometry" />
        </mxCell>
      </root>
    </mxGraphModel>
  </diagram>
</mxfile>
